# xmcd
#
# Track frame offsets: 
#        150
#        54135
#        143480
#        214165
#
# Disc length: 3662 seconds
#
# Revision: 1
# Processed by: cddbd v1.5.2PL0 Copyright (c) Steve Scherf et al.
# Submitted via: ExactAudioCopyFreeDBPlugin 1.0
#
DISCID=2e0e4c04
DTITLE=Norman Granz Jam Session - Swing Time 092 - Jam Sessions 02 - 1
DTITLE=953
DYEAR=1953
DGENRE=Jazz
TTITLE0=Apple Jam
TTITLE1=Oh, Lady Be Good
TTITLE2=Blues For The Count
TTITLE3=Ballad Medley
EXTD=YEAR: 2006
EXTT0=
EXTT1=
EXTT2=
EXTT3=
PLAYORDER=
